<?xml version="1.0" standalone="no"?>
<!DOCTYPE svg PUBLIC "-//W3C//DTD SVG 20010904//EN"
 "http://www.w3.org/TR/2001/REC-SVG-20010904/DTD/svg10.dtd">
<svg version="1.0" xmlns="http://www.w3.org/2000/svg"
 width="577.000000pt" height="577.000000pt" viewBox="0 0 577.000000 577.000000"
 preserveAspectRatio="xMidYMid meet">
<metadata>
Created by potrace 1.14, written by Peter Selinger 2001-2017
</metadata>
<g transform="translate(0.000000,577.000000) scale(0.100000,-0.100000)"
fill="#000000" stroke="none">
<path d="M1370 4493 c-46 -5 -130 -33 -130 -43 0 -4 7 -14 17 -21 24 -21 53
-89 53 -129 0 -20 9 -61 20 -92 15 -42 21 -97 27 -220 4 -89 6 -183 5 -208 -3
-51 26 -283 39 -318 5 -13 16 -58 25 -100 18 -89 55 -176 90 -213 13 -14 33
-42 43 -63 24 -46 32 -34 -136 -200 -96 -95 -138 -130 -200 -162 -43 -23 -79
-48 -81 -56 -1 -8 30 -38 70 -68 91 -70 126 -89 160 -90 15 0 33 -7 42 -15 8
-8 28 -15 45 -15 28 0 31 -3 31 -32 0 -83 -67 -240 -131 -307 -22 -23 -38 -48
-36 -56 3 -7 39 -34 79 -60 40 -26 90 -62 110 -80 21 -17 55 -37 75 -43 21 -6
63 -27 93 -47 30 -19 64 -35 75 -35 11 0 36 -9 56 -19 20 -11 58 -22 85 -26
27 -4 66 -13 87 -21 20 -8 46 -14 57 -14 11 0 43 -11 72 -25 28 -14 64 -25 78
-25 40 0 90 -28 90 -51 0 -11 9 -37 20 -59 11 -22 20 -53 20 -70 0 -44 39 -99
133 -190 45 -43 91 -88 103 -99 38 -37 84 -49 192 -49 78 0 107 -3 120 -15 18
-16 67 -11 150 14 18 6 60 14 93 19 47 7 76 19 128 55 60 40 77 59 136 153 91
144 89 140 110 195 17 44 24 51 88 83 41 21 103 42 151 51 148 27 387 107 411
136 6 7 57 41 115 76 110 67 188 125 196 146 3 7 -17 42 -45 78 -68 91 -112
186 -118 258 l-6 59 42 0 c84 0 216 73 287 159 27 32 27 35 10 45 -78 46 -267
199 -338 274 -83 85 -101 112 -79 112 17 0 100 133 126 203 53 143 110 537 77
537 -7 0 -12 -5 -12 -11 0 -5 -4 -7 -10 -4 -5 3 -10 14 -10 23 0 14 2 15 10 2
7 -12 10 -11 16 5 4 11 11 22 15 25 5 3 9 51 10 105 2 109 15 196 49 320 11
44 23 93 25 109 2 16 13 37 24 48 19 17 28 38 16 38 -3 0 -49 7 -102 16 -171
27 -377 -7 -583 -96 -110 -48 -181 -88 -220 -127 -45 -44 -131 -99 -164 -105
-21 -4 -24 -2 -15 8 8 10 -7 12 -75 11 -75 -2 -86 -4 -86 -19 0 -21 -1 -21
-37 -7 -25 11 -49 16 -160 35 -22 4 -30 10 -26 20 4 11 -7 14 -53 13 -74 -2
-116 -11 -121 -26 -2 -6 4 -13 14 -16 10 -3 2 -5 -17 -6 -39 -1 -80 8 -80 18
0 3 24 14 53 22 l52 17 -63 1 c-45 1 -74 -5 -102 -19 -47 -24 -60 -25 -60 -4
0 21 -22 16 -120 -27 -67 -29 -84 -33 -160 -32 -50 1 -86 6 -88 12 -2 6 -16
11 -31 11 -15 0 -48 14 -74 31 -26 17 -51 28 -57 24 -6 -4 -10 4 -10 19 0 29
-32 50 -95 62 -22 4 -51 15 -64 25 -13 11 -30 19 -38 19 -8 0 -76 24 -152 54
-135 53 -215 70 -318 70 -34 0 -54 4 -57 13 -3 7 -9 12 -13 11 -4 0 -24 -3
-43 -5z m305 -178 c229 -102 425 -361 425 -562 0 -36 4 -63 10 -63 6 0 29 17
53 38 101 91 321 232 337 216 11 -11 40 -118 44 -159 1 -17 -5 -41 -16 -55
-10 -14 -28 -63 -39 -110 -19 -74 -21 -93 -11 -148 6 -35 23 -89 37 -119 31
-62 116 -153 161 -171 23 -10 32 -23 41 -55 39 -148 53 -211 53 -233 0 -14 7
-38 15 -54 9 -16 18 -50 22 -75 3 -25 10 -48 14 -51 5 -3 9 -18 9 -34 0 -16 4
-31 9 -34 4 -3 11 -25 14 -48 2 -24 10 -56 17 -73 11 -28 14 -22 52 125 40
154 74 303 84 370 3 19 13 59 22 88 14 47 22 56 68 82 113 63 184 195 184 340
0 90 -15 147 -55 210 -16 25 -28 48 -27 53 1 4 -2 7 -8 7 -15 0 -12 26 4 39 7
6 16 36 18 66 3 30 7 58 11 61 15 15 227 -115 350 -213 43 -35 79 -63 81 -63
2 0 7 39 11 86 4 50 15 105 27 132 100 227 341 424 536 440 l64 5 -26 -51
c-50 -99 -66 -183 -77 -402 -6 -140 -16 -233 -30 -292 -23 -96 -72 -205 -116
-257 l-30 -35 -36 77 c-20 42 -43 101 -52 131 -9 31 -19 56 -22 56 -3 0 -2
-44 2 -97 17 -231 125 -476 312 -707 l65 -81 -101 -3 c-71 -2 -101 -6 -101
-15 0 -20 19 -139 29 -182 6 -22 17 -71 26 -110 19 -82 51 -168 79 -209 l19
-29 -34 -28 c-69 -57 -191 -109 -315 -134 -120 -25 -274 -34 -274 -15 0 5 14
62 31 127 34 131 80 240 103 249 23 9 19 24 -6 24 -39 0 -107 -41 -146 -88
-53 -63 -92 -143 -156 -320 -125 -344 -197 -440 -374 -498 -37 -12 -69 -20
-71 -18 -2 1 5 15 16 31 55 80 133 232 133 259 -1 38 -20 71 -56 95 -26 17
-48 19 -210 19 l-180 0 -26 -27 c-58 -63 -60 -97 -9 -179 16 -27 43 -71 58
-99 16 -27 35 -60 43 -72 22 -34 6 -38 -57 -13 -185 74 -253 165 -374 505 -87
245 -163 358 -262 391 -56 19 -69 13 -39 -19 32 -34 60 -104 97 -247 l33 -130
-88 0 c-187 0 -369 57 -492 154 -44 34 -45 38 -19 74 26 38 77 194 91 277 6
39 17 102 24 140 7 39 11 73 9 78 -2 4 -51 7 -109 7 l-105 0 36 38 c195 212
337 507 352 732 3 52 3 93 0 90 -3 -3 -21 -44 -40 -91 -19 -47 -41 -98 -49
-114 l-15 -27 -36 43 c-88 108 -113 198 -132 479 -19 280 -51 435 -103 494
-17 18 -15 19 58 13 50 -4 95 -14 135 -32z m1318 -132 c-7 -2 -19 -2 -25 0 -7
3 -2 5 12 5 14 0 19 -2 13 -5z m1394 -290 c-3 -10 -5 -4 -5 12 0 17 2 24 5 18
2 -7 2 -21 0 -30z m-1397 -199 c108 -72 121 -204 31 -306 -56 -64 -180 -75
-250 -23 -99 72 -118 188 -46 285 62 85 177 104 265 44z"/>
<path d="M2135 3223 c-35 -52 -35 -158 0 -257 13 -39 23 -71 21 -73 -8 -8 -64
21 -104 54 l-45 36 5 -90 c6 -133 41 -193 174 -304 10 -9 28 -29 39 -45 33
-46 74 -82 124 -106 37 -18 66 -23 149 -25 99 -2 105 -4 124 -29 12 -14 31
-49 42 -78 28 -68 43 -92 51 -84 7 6 7 254 0 298 -14 95 -46 223 -64 259 -30
57 -124 149 -202 196 -141 85 -211 149 -255 236 -13 27 -26 49 -29 49 -2 0
-16 -17 -30 -37z"/>
<path d="M3575 3218 c-50 -88 -96 -136 -186 -198 -52 -35 -114 -79 -139 -98
-127 -96 -179 -213 -200 -447 -8 -97 -9 -136 -2 -222 3 -41 19 -25 58 57 20
44 43 85 51 92 7 6 57 13 111 15 128 6 201 37 261 113 23 29 58 65 79 80 58
43 89 80 118 145 23 49 29 77 31 155 l4 95 -32 -38 c-17 -21 -49 -47 -70 -57
-45 -23 -67 -26 -51 -7 5 6 20 45 32 86 26 84 24 175 -4 229 -21 41 -37 40
-61 0z"/>
</g>
</svg>
